<?xml version="1.0" ?><!-- Uploaded to: SVG Repo, www.svgrepo.com, Generator: SVG Repo Mixer Tools -->
<svg width="800px" height="800px" viewBox="0 0 512 512" id="Layer_1" version="1.1" xml:space="preserve" xmlns="http://www.w3.org/2000/svg" xmlns:xlink="http://www.w3.org/1999/xlink"><style type="text/css">
	.st0{fill:#6040EC;}
	.st1{fill:#0BDC49;}
</style><path class="st0" d="M256.5,88.9c29.4,44.5,52.6,83.6,72,121c17,32.8,33.9,67.8,36.8,102.4c1.6,19.7-1.3,38.2-9,56.4  c-8.8,20.9-23.2,39.6-40.4,52.6C298,434.8,277.5,442,256.7,442h0c-16.4,0-32.1-4.2-46.9-12.4c-14-7.8-26.9-19.4-37.2-33.3  c-24.1-32.5-32.4-74.3-21.8-109c10.7-35,27.7-72.4,52.1-114.3C219.6,144.2,238.1,116.2,256.5,88.9 M280.7,442L280.7,442L280.7,442   M256.7,46c-48.9,71.6-103.2,150.3-128.8,234.3C102.6,363,166.1,466,256.7,466c55,0,101-38.9,121.7-88c9.8-23.3,12.6-45.8,10.8-67.8  c-3.2-38.3-20.5-75-39.4-111.4C322.4,145.9,290.3,95.3,256.7,46L256.7,46z"/></svg>